# xmcd CD database file
#
# Track frame offsets:
#	150
#	36792
#	47005
#	73112
#	86570
#	98035
#	106282
#	137722
#	163487
#	185080
#	195872
#	215030
#	238465
#	256552
#
# Disc length: 3523 seconds
#
# Revision: 6
# Processed by: cddbd v1.5.2PL0 Copyright (c) Steve Scherf et al.
# Submitted via: CDex 1.51
#
DISCID=ca0dc10e
DTITLE=Mike Oldfield - Tubular Bells II
DYEAR=2000
DGENRE=Progressive Rock
TTITLE0=Sentinel
TTITLE1=Dark Star
TTITLE2=Clear Light
TTITLE3=Blue Saloon
TTITLE4=Sunjammer
TTITLE5=Red Dawn
TTITLE6=The Bell
TTITLE7=Weightless
TTITLE8=The Great Plain
TTITLE9=Sunset Door
TTITLE10=Tattoo
TTITLE11=Altered State
TTITLE12=Maya Gold
TTITLE13=Moonshine
EXTD=\n YEAR: 2000
EXTT0=
EXTT1=
EXTT2=
EXTT3=
EXTT4=
EXTT5=
EXTT6=
EXTT7=
EXTT8=
EXTT9=
EXTT10=
EXTT11=
EXTT12=
EXTT13=
PLAYORDER=
